<svg id="Layer_1" data-name="Layer 1" xmlns="http://www.w3.org/2000/svg" viewBox="0 0 590.68 275"><defs><style>.cls-1{fill:none;stroke:#bac6cc;stroke-miterlimit:10}.cls-2{font-size:15.29px;fill:#666;padding-right:5px}.cls-2,.cls-4{font-family:Roboto}.cls-3{fill:#bac6cc}.cls-4{font-size:12px;fill:#999}</style></defs><title>sector-chart</title><path class="cls-1" d="M229.49 263.79H555.7M229.81 264.16V16.61"/><text class="cls-2" transform="translate(9.55 251.86)">Audio-Visual &amp; Interactive Media</text><text class="cls-2" transform="translate(94.81 216.53)">Visual Arts &amp; Crafts</text><text class="cls-2" transform="translate(157.57 181.2)">Education</text><text class="cls-2" transform="translate(128.02 145.87)">Books &amp; Press</text><text class="cls-2" transform="translate(44.42 110.54)">Performance &amp; Celebration</text><text class="cls-2" transform="translate(46.82 75.21)">Design &amp; Creative Services</text><text class="cls-2" transform="translate(190.33 39.88)">Food</text><path class="cls-3" d="M228.99 30.59h88.19v3.35h-88.19z"/><circle class="cls-3" cx="317.18" cy="32.94" r="7.5"/><path class="cls-3" d="M228.99 66.65H295V70h-66.01z"/><circle class="cls-3" cx="295" cy="69" r="7.5"/><path class="cls-3" d="M229.49 102.71h325.49v3.35H229.49z"/><ellipse class="cls-3" cx="554.98" cy="104.38" rx="7.52" ry="7.5"/><path class="cls-3" d="M229.49 138.77h109.23v3.35H229.49z"/><circle class="cls-3" cx="338.72" cy="141.12" r="7.5"/><path class="cls-3" d="M229.31 174.82h109.41v3.35H229.31z"/><circle class="cls-3" cx="338.72" cy="176.5" r="7.5"/><path class="cls-3" d="M228.99 209.15h217.42v3.35H228.99z"/><circle class="cls-3" cx="446.42" cy="212.5" r="7.5"/><path class="cls-3" d="M229.81 245.48h216.61v3.35H229.81z"/><circle class="cls-3" cx="446.42" cy="247.15" r="7.5"/><text class="cls-4" transform="translate(331 36.69)">4</text><text class="cls-4" transform="translate(307.68 72.75)">3</text><text class="cls-4" transform="translate(564.68 109.13)">15</text><text class="cls-4" transform="translate(349.68 144.87)">5</text><text class="cls-4" transform="translate(349.68 179.25)">5</text><text class="cls-4" transform="translate(458.18 215.25)">10</text><text class="cls-4" transform="translate(458.18 249.9)">10</text></svg>